<?xml version="1.0" encoding="UTF-8"?>
<svg id="Calque_1" data-name="Calque 1" xmlns="http://www.w3.org/2000/svg" viewBox="0 0 4754.6 4754.44">
  <defs>
    <style>
      .cls-1 {
        fill: #615c5c;
      }

      .cls-1, .cls-2 {
        stroke-width: 0px;
      }

      .cls-2 {
        fill: #fff;
      }
    </style>
  </defs>
  <path class="cls-1" d="M.27,2371.66c0-555.28-.76-1110.55.41-1665.83.42-197.07,77.14-363.7,216.22-501.5C329.35,92.92,466.09,28.68,622.2,5.45c24.28-3.61,49.09-5.12,73.66-5.12,1115.22-.27,2230.44-.59,3345.66.02,198.3.11,367.17,74.68,506.39,214.84,115.65,116.44,181.23,258.09,201.76,420.54,3.58,28.33,4.63,57.14,4.64,85.73.21,1107.22.69,2214.44-.31,3321.66-.19,210.7-84.21,386.72-239.81,527.31-133.76,120.86-292.53,183.36-473.07,183.47-1111.22.65-2222.44.83-3333.66-.06-310.73-.25-593.26-216.86-678.84-515.52C8.88,4169.42-.06,4099.31,0,4027.49c.48-551.94.26-1103.89.27-1655.83ZM2820.46,4278.93v-26.61c0-140.65-.46-281.29.11-421.94.84-205.91,1.17-411.84,4.4-617.72,1.06-67.84,14.22-134.9,36.3-199.56,32.33-94.63,95.36-159.9,191.62-187.69,41.01-11.84,84.95-16.08,127.84-18.38,137.7-7.39,252.41,56.99,289.71,201.22,17.81,68.87,27.03,141.79,27.6,212.98,2.76,342.59,1.24,685.22,1.24,1027.84q0,30.93,31.74,30.94c185.31,0,370.61.02,555.92-.05,8.33,0,16.67-.75,27.41-1.27,0-12.66,0-23.2,0-33.73,0-354.61.32-709.23-.26-1063.84-.12-73.83-1.48-147.79-6.05-221.45-6.66-107.41-28.74-212.03-67.84-312.62-59.9-154.09-155.58-273.73-318.65-327.28-147.27-48.36-297.16-70.29-452.16-46.38-195.67,30.19-346.38,129.41-456.77,292.33-3.54,5.23-8.71,9.35-16.56,17.6,0-85.93.01-165.88,0-245.83,0-26.55-.05-26.62-25.97-26.63-177.97-.02-355.95.28-533.92-.42-19.74-.08-26.05,4.66-26.03,25.43.56,639.91.54,1279.81.07,1919.72-.01,18.88,4.7,24.94,24.21,24.87,187.3-.67,374.61-.38,561.91-.43,7.16,0,14.32-.64,24.11-1.1ZM1828.91,4280c.61-10.56,1.4-17.78,1.4-25,.06-639.98-.02-1279.95.42-1919.93.01-19.34-5.82-24.69-24.96-24.62-188.66.66-377.32.65-565.98.01-19.14-.06-24.92,5.37-24.91,24.72.45,639.98.47,1279.95-.08,1919.93-.02,20.8,6.3,25.39,26.1,25.32,187.99-.73,375.98-.43,563.98-.43,7.23,0,14.47,0,24.03,0ZM1880.67,1696.58c2.78-197.31-158.37-353.78-346.5-358.92-196.36-5.37-365.8,150.88-367.41,354.6-1.54,194.69,158.36,357.42,348.09,360.23,214.34,3.18,368.83-172.9,365.81-355.91Z"/>
  <path class="cls-2" d="M2820.46,4278.93c-9.8.46-16.95,1.1-24.11,1.1-187.3.05-374.61-.24-561.91.43-19.51.07-24.22-5.99-24.21-24.87.47-639.91.49-1279.81-.07-1919.72-.02-20.77,6.29-25.5,26.03-25.43,177.97.7,355.95.4,533.92.42,25.92,0,25.96.08,25.97,26.63.02,79.95,0,159.9,0,245.83,7.85-8.25,13.02-12.37,16.56-17.6,110.39-162.92,261.1-262.14,456.77-292.33,155-23.92,304.89-1.98,452.16,46.38,163.06,53.55,258.75,173.19,318.65,327.28,39.1,100.58,61.18,205.2,67.84,312.62,4.57,73.67,5.93,147.62,6.05,221.45.59,354.61.26,709.23.26,1063.84,0,10.53,0,21.07,0,33.73-10.74.52-19.07,1.27-27.41,1.27-185.31.07-370.61.05-555.92.05q-31.72,0-31.74-30.94c0-342.62,1.51-685.25-1.24-1027.84-.57-71.19-9.79-144.11-27.6-212.98-37.3-144.23-152.01-208.61-289.71-201.22-42.9,2.3-86.83,6.55-127.84,18.38-96.27,27.79-159.29,93.06-191.62,187.69-22.09,64.66-35.24,131.71-36.3,199.56-3.23,205.88-3.56,411.81-4.4,617.72-.57,140.64-.11,281.29-.11,421.94v26.61Z"/>
  <path class="cls-2" d="M1828.91,4280c-9.56,0-16.79,0-24.03,0-187.99,0-375.99-.29-563.98.43-19.81.08-26.12-4.51-26.1-25.32.55-639.97.53-1279.95.08-1919.93-.01-19.35,5.78-24.79,24.91-24.72,188.66.63,377.32.64,565.98-.01,19.14-.07,24.97,5.28,24.96,24.62-.44,639.98-.36,1279.95-.42,1919.93,0,7.22-.79,14.44-1.4,25Z"/>
  <path class="cls-2" d="M1880.67,1696.58c3.02,183.01-151.46,359.09-365.81,355.91-189.73-2.82-349.63-165.55-348.09-360.23,1.61-203.72,171.05-359.96,367.41-354.6,188.13,5.14,349.27,161.61,346.5,358.92Z"/>
</svg>