<?xml version="1.0" encoding="UTF-8"?>
<svg id="Calque_1" data-name="Calque 1" xmlns="http://www.w3.org/2000/svg" viewBox="0 0 4796.39 2272.1">
  <defs>
    <style>
      .cls-1 {
        fill: #625e5e;
      }

      .cls-1, .cls-2 {
        stroke-width: 0px;
      }

      .cls-2 {
        fill: #fe5042;
      }
    </style>
  </defs>
  <path class="cls-1" d="M1979.34,1137.15c0,181.55-.24,363.09.39,544.64.06,17.27-4.37,27.26-20.04,36.26-316.81,182.02-633.32,364.56-949.55,547.57-15.32,8.87-26.05,8.51-41.26-.29-314.85-182.19-629.99-363.88-945.38-545.13C7.06,1710.75-.04,1701,0,1681.02c.72-363.09.69-726.18.06-1089.26-.03-19.58,6.29-29.63,23.15-39.31C339.33,370.85,655.1,188.65,970.6,5.98c14.76-8.54,25-7.55,39.05.58,315.59,182.51,631.37,364.7,947.48,546.31,16.91,9.72,22.74,20.31,22.66,39.66-.77,181.54-.46,363.09-.46,544.63ZM80.52,1134.45c0,167.82.27,335.64-.42,503.45-.07,16.74,5.35,25.69,19.57,33.86,290.19,166.8,580.2,333.9,869.84,501.64,15.64,9.06,26.33,8.09,41.3-.57,288.99-167.25,578.22-334.1,867.81-500.33,15.65-8.99,20.17-18.62,20.14-35.91-.53-334.02-.5-668.04-.05-1002.06.02-16.38-4.51-25.52-19.35-34.04-290.96-167.08-581.57-334.76-871.98-502.77-12.68-7.34-21.52-7.97-34.64-.38C681.64,265.79,390.29,433.8,98.67,601.35c-13.79,7.92-18.6,16.23-18.54,32.07.63,167.01.39,334.02.39,501.03Z"/>
  <path class="cls-1" d="M4452.11,634.83c65.61,130.36,129.73,257.69,193.79,385.05,46.34,92.13,92.07,184.57,139.33,276.22,10.5,20.36,5.9,23.87-14.61,22.78-24.16-1.29-48.54-1.58-72.65.11-18.64,1.31-28.26-4.75-36.77-21.97-63.88-129.27-128.94-257.96-193.97-386.66-4.07-8.06-5.06-21.86-16.54-21.3-10.7.52-12.05,13.93-16.23,22.16-36.11,71.12-71.88,142.41-107.49,213.79-11.13,22.32-9.59,24.78,14.69,24.86,58.96.18,117.94.79,176.89-.41,16.44-.33,24.49,5.14,31.05,19.5,13.63,29.86,29.03,58.91,45.33,91.54h-111.13c-67.04,0-134.09.64-201.12-.43-17.86-.29-29.8,3.99-34.46,21.7-8.46,32.18-29.47,40.94-61.1,37.37-25.24-2.85-51.06-.58-77.18-.58,5.72-20.14,323.64-655.06,342.18-683.74Z"/>
  <path class="cls-1" d="M2891.55,1164.59c-72.89,115.64-215.08,175.55-347.41,147.53-138.36-29.3-243.93-139.93-263.56-276.19-22.33-154.98,59.29-300.4,202.04-359.99,140.87-58.8,302.73-13.66,396.76,109.5,12.37,16.2,10.53,23.79-7.78,29.58-1.53.48-2.96,1.3-4.4,2.02-22.35,11.18-43.94,29.07-67.26,31.72-24.29,2.76-34.23-28.45-52.82-42.36-96.89-72.46-235.93-56.34-310.92,37.68-75.94,95.23-62.92,233.67,29.27,311.12,93.85,78.84,234.07,68.91,313.3-23.56,12.1-14.12,20.59-14.91,35.4-6.63,25.23,14.1,51.45,26.42,77.38,39.56Z"/>
  <path class="cls-1" d="M4127.35,804.76c-30.91,15.58-59.94,29.51-88.24,44.79-13.77,7.43-16.85-4.04-22.49-10.49-72.28-82.63-190.07-103.56-283.43-47.13-83.49,50.46-120.76,127.28-108.04,223.31,12.05,91.03,65.26,154.07,153.12,181.76,90.68,28.59,170.84,5.62,235.28-64.54,12.98-14.13,21.46-16.78,37.44-7.06,18.53,11.27,38.34,20.66,58.24,29.38,15.07,6.61,18.86,12.4,7.27,27.06-85.78,108.47-197.55,155.76-333.08,129.93-133.51-25.44-221.59-108.81-259.29-239.39-44.91-155.52,33.31-321.13,179.91-389.95,147.91-69.44,323.58-22.26,416.95,111.99,1.83,2.63,3.38,5.47,6.36,10.33Z"/>
  <path class="cls-1" d="M3226.93,1336.29c-115.98-230.67-229.44-456.33-344.78-685.73,40.88,0,78.32-.05,115.77.03,11.99.02,12.73,10.91,16.44,18.24,65.73,130.14,131.2,260.42,196.9,390.58,3.85,7.62,5.1,19.79,14.7,20.47,12.12.86,12.73-12.81,16.76-20.78,65.45-129.36,130.84-258.75,195.34-388.59,7.53-15.16,15.76-21.19,32.84-20.42,32.21,1.45,64.54.42,100.93.42-114.94,228.55-228.7,454.72-344.9,685.78Z"/>
  <path class="cls-1" d="M3536.65,1464.31c-410.41,0-820.83,0-1231.24,0-6.46,0-12.94-.29-19.39,0-9.58.43-10.03-5.69-9.73-12.67.3-7.09-1.48-15.4,9.94-15.29,5.65.05,11.31-.06,16.97-.06,821.63,0,1643.27,0,2464.9,0,6.46,0,12.94-.15,19.38.22,9.27.53,8.9,7.51,8.91,14.09,0,6.58.54,13.5-9.1,13.59-7.27.07-14.54.11-21.81.11-409.61,0-819.21,0-1228.82,0Z"/>
  <path class="cls-2" d="M3764.61,1695.48c-49.78,25.28-81.41,6.06-81.87-48.54-.38-44.99,9.82-61.27,40.79-65.08,1.6-.2,3.34-.74,4.81-.35,20.74,5.48,41.35,6.44,62.49,1.21,11.07-2.74,15.62,3.72,15.48,15.17-.5,41.15.49,82.34-.72,123.46-.86,29.24-12.18,39.63-41.3,43.66-15.35,2.13-30.62,2.59-45.81-.48-5.44-1.1-11.22-2.58-15.8-5.51-12.35-7.91-18.35-22.47-11.95-33.23,6.2-10.43,27-8.5,32.66-2.32,11.51,12.56,23.7,16.24,35.48,8.55,12.34-8.06,4.37-23.63,5.74-36.54ZM3763.73,1643.15c-1.98-9.66,5.59-29.04-19.36-29.15-21.17-.09-18.92,15.25-18.61,28.66.32,13.64-4.19,31.19,18.03,32.03,19.25.73,21.27-12.78,19.93-31.54Z"/>
  <path class="cls-2" d="M2276.25,1648.53c0-58.75,49.61-86.89,98.49-59.94,14.8,8.16,27.14,42.38,21.6,57.78-2.76,7.66-8.52,6.19-13.78,6.29-13.72.26-27.53-.74-41.16.43-7.73.66-18.84-6.11-22.69,6.46-1.61,5.27-.06,12.44,5.6,14.83,9.66,4.09,21.65,7.62,28.34-3.13,7.15-11.48,16.87-6.64,25.71-7.71,22.23-2.68,19.61,9.84,13.75,23.49-4.11,9.55-12.38,15.26-22,17.52-22.34,5.25-45.24,5.51-66.99-1.5-29.08-9.38-25.49-35.53-26.88-54.52ZM2337.22,1628.96c5.83-2.01,16.34,3.97,16.4-7.02.05-9.13-9.36-9.3-16.42-9.26-7.71.05-18.33-.57-17.33,10.44.92,10.02,11.43,3.69,17.34,5.84Z"/>
  <path class="cls-2" d="M4381.73,1707.88c-21.88-2.29-46.33,1.71-55.93-22.57-10.94-27.69-11.88-57.32,1.75-84.46,9.7-19.32,56.89-26.07,85.27-14.84,18.86,7.47,30.1,33.35,26.35,57.2-1.45,9.26-6.49,9.56-13.26,9.55-16.95-.04-33.91-.2-50.86.13-5.75.11-13.83-2.62-13.99,7.96-.12,8.22,2.83,14.7,11.56,15.68,8.42.94,17.62,3.87,24.06-5.72,9.37-13.94,23.93-7.65,35.5-6.26,11.93,1.44,6.9,12.92,4.08,19.52-10.86,25.39-34.36,22.6-54.54,23.82ZM4380.6,1629.63c3.23-6.89,16.79,7.13,16.55-7.83-.14-8.74-9.59-9.76-16.76-9.62-7.74.15-18.5-.11-18.25,10.42.26,10.85,11.12,4.03,18.46,7.03Z"/>
  <path class="cls-2" d="M3047.81,1707.59c-21.83-1.82-45.2,1.19-54.23-21.9-10.8-27.61-11.74-57.29,1.23-84.49,9.3-19.52,56.16-26.42,85.01-15.35,19.54,7.5,30.17,31.5,26.65,56.81-1.25,9.01-5.68,10.15-12.82,10.1-16.93-.11-33.88-.32-50.8.18-5.47.16-14.13-3.64-14.54,7.08-.36,9.24,3.87,15.87,13.51,16.82,8.57.84,16.82,1.99,23.72-7.12,9.35-12.35,23.58-5.33,35.72-5.12,4.56.08,4.69,5.66,4.5,9.77-.61,13.46-7.58,22.55-19.56,28.05-12.91,5.94-26.7,5.07-38.4,5.16ZM3046.67,1629.1c5.77-3.36,17.98,6.3,18.04-7.23.04-8.39-9.57-9.28-16.92-9.28-8.07,0-18.54.28-18.33,10.31.22,10.62,11.2,3.63,17.2,6.2Z"/>
  <path class="cls-2" d="M2631.6,1644.69c0-12.1-.03-24.19,0-36.29.05-25.24,11.56-36.29,32.82-24.34,13.93,7.83,20.8,2.11,31.09-.64,33.9-9.06,55.35,7.27,55.65,42.26.17,19.35-.64,38.74.25,58.05.68,14.74-.45,23.4-19.78,23.32-18.7-.08-23.98-5.75-22.46-23.46,1.43-16.81.28-33.84.27-50.78,0-10.78-2.45-19.31-15.96-18.97-12.7.32-19.7,6.43-19.91,19.16-.33,19.35-1.16,38.76,0,58.04,1,16.75-9.17,15.56-20.04,15.28-10.95-.28-23.57,3.17-22.15-15.69,1.15-15.24.23-30.63.23-45.95Z"/>
  <path class="cls-2" d="M4734.31,1706.45c-12.82-.18-25.72.57-38.17-4.21-15.02-5.77-25.29-18.61-18.65-31.33,6.72-12.88,24.15-6.08,37-3.24,2.37.52,3.44,5.47,5.92,7.25,9.42,6.76,19.85,5.29,29.92,1.96,4.45-1.47,5.24-6.58,3.56-10.23-4.73-10.29-14.83-7.85-23.29-8.35-44.29-2.58-58.69-14.94-53.28-46.3.54-3.15,1.43-6.32,2.67-9.26,10.76-25.39,34.23-20.54,54.22-21.19,20.52-.66,43.23-2.73,55.1,20.52,5.65,11.07,3.57,18.89-11.34,17.56-10.72-.96-22.1,3.12-31.25-7.8-2.96-3.53-12.06-2.29-18.38-2.53-5.23-.2-9.79,2.16-10.08,7.99-.29,5.8,4.16,8.7,9.19,9.29,9.59,1.13,19.27,1.38,28.9,2.2,28.4,2.4,40.45,13.92,40,38.06-.42,22.91-14.73,37.15-40.27,39.5-7.19.66-14.5.1-21.75.1Z"/>
  <path class="cls-2" d="M3342.82,1642.86c0-11.28-.02-22.56,0-33.85.03-26.1,13.65-36.61,36.64-24.01,9.59,5.26,13.84,2.31,20.79,0,13.88-4.62,27.56-4.48,38.22,6.61,10.4,10.81,9.07,25.31,8.73,38.93-.24,9.67-8.39,9.05-14.34,7.95-8.72-1.62-22.42,7.51-24.59-10.29-.79-6.46-2.1-13.75-10.94-12.92-9.11.86-11.24,8.24-11.41,15.87-.45,20.13-1.34,40.31-.5,60.41.82,19.64-12.9,13.95-23.05,14.66-10.74.75-21.15,1.83-19.8-15.04,1.28-16.02.27-32.21.27-48.33Z"/>
  <path class="cls-2" d="M4041.37,1643.27c0-12.05-.03-24.09,0-36.14.06-23.39,11.76-31.31,34.53-24.57,8.9,2.64,7.92,8.75,7.93,15.01.07,31.32-.7,62.66.29,93.95.62,19.57-12.69,14.13-22.85,14.68-10.45.56-21.39,2.29-20.15-14.77,1.17-15.98.25-32.1.24-48.17Z"/>
  <path class="cls-2" d="M4064.77,1532.08c11.1-1.46,19.95-.47,19.61,16.81-.35,17.5-11.31,14.21-21.3,14.34-10.99.15-22.27,3.02-22.26-15.75.01-19.05,11.63-15.26,23.96-15.41Z"/>
  <path class="cls-2" d="M2345.55,1535.99c3.5,1.69,14.33-4.36,11.36,7.35-2.35,9.27-4.02,21.65-18.86,20.09-5.64-.59-15.07,2.17-12.76-8.35,2.1-9.6,4.24-21.38,20.27-19.08Z"/>
  <path class="cls-2" d="M1860.52,1137.23c0,159.76-.25,319.51.38,479.27.07,16.66-5.12,25.55-19.74,33.95-277.69,159.5-555.07,319.53-832.25,479.91-13.48,7.8-23.43,8.52-37.31.49-278.57-161.2-557.39-321.95-836.39-482.41-11.92-6.86-16.79-14.1-16.77-28.28.44-322.74.45-645.48-.02-968.22-.02-14.31,5.37-21.19,17.02-27.89,279.69-160.87,559.24-322,838.51-483.6,12.33-7.13,20.77-6.46,32.56.35,278.65,161.06,557.46,321.85,836.58,482.1,14.19,8.15,17.8,17.37,17.75,32.65-.51,160.56-.31,321.13-.31,481.69ZM151.41,1136.97c0,139.58-.1,279.15.08,418.73.04,30.75,12.21,37.68,39.11,22.86,12.71-7,25.14-14.52,37.65-21.89,9.71-5.72,19.97-9.87,27.51,2.03,8.7,13.74-1.86,20.37-11.99,26.38-10.41,6.17-20.89,12.22-31.35,18.3-34.88,20.27-34.74,32.2.68,52.63,251.54,145.05,503.17,289.94,754.41,435.5,16.83,9.75,28.93,9.11,45.58-.59,138.66-80.84,277.95-160.6,417-240.76,113.9-65.66,227.78-131.36,341.58-197.18,28.24-16.34,28.4-30.52.91-46.82-13.87-8.23-28.05-15.94-41.84-24.31-8.65-5.25-12.53-13.07-7.04-22.51,5.41-9.3,13.79-10.31,22.9-5.21,11.96,6.7,23.82,13.58,35.72,20.4,35.97,20.6,47.06,14.15,47.06-27.59.03-273.5.03-547.01.03-820.52,0-5.65.41-11.35-.2-16.93-2.28-21.16-14.57-28.47-33.46-18.95-15.82,7.98-30.83,17.56-46.24,26.35-9.17,5.23-18.81,7.76-25.36-3.03-7.17-11.8-.5-19.55,9.86-25.4,11.94-6.74,23.78-13.65,35.61-20.59,31.81-18.67,31.6-31.6-1.06-50.42-252.96-145.82-506.04-291.44-758.68-437.79-15.68-9.08-26.51-7.82-41.41.85-142.21,82.75-284.89,164.7-427.42,246.92-111.09,64.08-222.19,128.13-333.18,192.38-28.48,16.49-28.46,29.66-.49,46.29,13.17,7.83,26.6,15.25,39.64,23.28,8.77,5.4,16.07,12.34,9.26,23.64-6.35,10.53-15.49,9.96-25.1,4.4-12.57-7.27-25.07-14.65-37.71-21.79-31.27-17.67-42.01-11.36-42.04,25.05-.09,138.77-.04,277.54-.04,416.31Z"/>
  <path class="cls-1" d="M887.52,1136.61c-226.71,113.69-449.8,225.56-675.95,338.97,0-39.45.6-74.74-.28-109.99-.37-14.78,10.9-16.48,19.56-20.84,126.73-63.81,253.59-127.36,380.42-190.97,4.32-2.17,8.64-4.36,13-6.44,15.13-7.22,16.26-14.34.27-22.17-26.78-13.13-53.42-26.54-80.09-39.9-45.41-22.75-90.77-45.59-136.19-68.31-29.7-14.86-31.04-13.97-31.06,20.19-.03,54.86-.55,109.74.34,164.58.25,15.6-3.36,24.82-18.74,31.55-29.29,12.8-57.45,28.19-86.33,42.63-5.52-9.28-3.22-17.39-3.23-25.02-.2-92.78-.65-185.57.31-278.34.19-18.49-3.28-31.14-22.29-36.51-28.97-8.19-40.5-26.3-36.27-57.06,2.94-21.38.98-43.5.42-65.27-.34-13.21,3.73-15.62,15.34-9.4,17.76,9.51,36.05,18.03,54.06,27.07,193.82,97.3,387.62,194.62,581.42,291.95,7.11,3.57,14.09,7.4,25.29,13.29Z"/>
  <path class="cls-1" d="M965.42,1255.52c202.39.17,343.62,137.26,353.6,318.49,9.14,165.98-121.67,317.98-291.02,336.14-124.02,13.31-224.03-31.87-301.86-128.48-11.38-14.12-13.93-22.8,6.09-30.77,19.41-7.73,38.28-17.32,56.22-28.05,15.15-9.06,23.66-7.18,36,6.61,106.85,119.43,298.87,91.4,365.56-52.56,45.58-98.39,12.71-215.53-77.44-275.92-90.53-60.65-210.62-47.35-284.07,34.12-15.98,17.73-27.07,19.02-45.49,7.58-16.37-10.17-33.94-18.74-51.76-26.17-15.87-6.62-18.59-12.48-7.19-27.24,67.63-87.54,156.61-131.54,241.35-133.77Z"/>
  <path class="cls-1" d="M660.95,718.46c.1-172.72,90.65-298.07,225.27-342.56,133.27-44.05,281.36,2.27,366.26,113.65,11.75,15.42,15.25,25.55-6.81,32.19-1.52.46-2.84,1.51-4.29,2.23-21.62,10.82-42.46,27.88-65.1,30.73-24.26,3.06-33.14-27.77-51.18-41.31-76.17-57.19-181.34-60.99-260.46-6.79-78.9,54.05-113.86,153.35-86.33,245.24,27.51,91.83,111.54,155.08,207.53,156.4,67.85.94,124.61-24.04,169.04-74.72,12.08-13.78,20.99-15.53,36.13-6.52,18.65,11.11,38.36,20.65,58.25,29.39,14.58,6.4,16.9,12.02,6.84,25.88-108.25,149.07-323.75,179.83-468.43,65.45-83.64-66.12-125.35-153.47-126.73-229.25Z"/>
  <path class="cls-1" d="M1767.35,1475.42c-226.65-113.71-449.2-225.37-676-339.16,225.76-113.3,448.49-225.07,675.76-339.12,0,40.92.4,78.17-.24,115.4-.19,11.21-12.03,11.8-19.42,15.53-127.45,64.21-255.06,128.1-382.52,192.29-7.57,3.81-19.57,4.99-20.14,15.12-.7,12.33,12.88,12.84,20.77,16.82,126.69,63.9,253.46,127.64,380.65,190.54,15.79,7.81,22.68,16.22,21.64,34.5-1.78,31.3-.49,62.78-.49,98.08Z"/>
</svg>