<?xml version="1.0" encoding="UTF-8"?>
<svg id="Calque_1" data-name="Calque 1" xmlns="http://www.w3.org/2000/svg" viewBox="0 0 1979.8 2272.1">
  <defs>
    <style>
      .cls-1 {
        fill: #625e5e;
      }

      .cls-1, .cls-2 {
        stroke-width: 0px;
      }

      .cls-2 {
        fill: #fe5042;
      }
    </style>
  </defs>
  <path class="cls-1" d="M1979.34,1137.15c0,181.55-.24,363.09.39,544.64.06,17.27-4.37,27.26-20.04,36.26-316.81,182.02-633.32,364.56-949.55,547.57-15.32,8.87-26.05,8.51-41.26-.29-314.85-182.19-629.99-363.88-945.38-545.13C7.06,1710.75-.04,1701,0,1681.02c.72-363.09.69-726.18.06-1089.26-.03-19.58,6.29-29.63,23.15-39.31C339.33,370.85,655.1,188.65,970.6,5.98c14.76-8.54,25-7.55,39.05.58,315.59,182.51,631.37,364.7,947.48,546.31,16.91,9.72,22.74,20.31,22.66,39.66-.77,181.54-.46,363.09-.46,544.63ZM80.52,1134.45c0,167.82.27,335.64-.42,503.45-.07,16.74,5.35,25.69,19.57,33.86,290.19,166.8,580.2,333.9,869.84,501.64,15.64,9.06,26.33,8.09,41.3-.57,288.99-167.25,578.22-334.1,867.81-500.33,15.65-8.99,20.17-18.62,20.14-35.91-.53-334.02-.5-668.04-.05-1002.06.02-16.38-4.51-25.52-19.35-34.04-290.96-167.08-581.57-334.76-871.98-502.77-12.68-7.34-21.52-7.97-34.64-.38C681.64,265.79,390.29,433.8,98.67,601.35c-13.79,7.92-18.6,16.23-18.54,32.07.63,167.01.39,334.02.39,501.03Z"/>
  <path class="cls-1" d="M1979.34,1137.15c0,181.55-.24,363.09.39,544.64.06,17.27-4.37,27.26-20.04,36.26-316.81,182.02-633.32,364.56-949.55,547.57-15.32,8.87-26.05,8.51-41.26-.29-314.85-182.19-629.99-363.88-945.38-545.13C7.06,1710.75-.04,1701,0,1681.02c.72-363.09.69-726.18.06-1089.26-.03-19.58,6.29-29.63,23.15-39.31C339.33,370.85,655.1,188.65,970.6,5.98c14.76-8.54,25-7.55,39.05.58,315.59,182.51,631.37,364.7,947.48,546.31,16.91,9.72,22.74,20.31,22.66,39.66-.77,181.54-.46,363.09-.46,544.63ZM80.52,1134.45c0,167.82.27,335.64-.42,503.45-.07,16.74,5.35,25.69,19.57,33.86,290.19,166.8,580.2,333.9,869.84,501.64,15.64,9.06,26.33,8.09,41.3-.57,288.99-167.25,578.22-334.1,867.81-500.33,15.65-8.99,20.17-18.62,20.14-35.91-.53-334.02-.5-668.04-.05-1002.06.02-16.38-4.51-25.52-19.35-34.04-290.96-167.08-581.57-334.76-871.98-502.77-12.68-7.34-21.52-7.97-34.64-.38C681.64,265.79,390.29,433.8,98.67,601.35c-13.79,7.92-18.6,16.23-18.54,32.07.63,167.01.39,334.02.39,501.03Z"/>
  <path class="cls-2" d="M1860.52,1137.23c0,159.76-.25,319.51.38,479.27.07,16.66-5.12,25.55-19.74,33.95-277.69,159.5-555.07,319.53-832.25,479.91-13.48,7.8-23.43,8.52-37.31.49-278.57-161.2-557.39-321.95-836.39-482.41-11.92-6.86-16.79-14.1-16.77-28.28.44-322.74.45-645.48-.02-968.22-.02-14.31,5.37-21.19,17.02-27.89,279.69-160.87,559.24-322,838.51-483.6,12.33-7.13,20.77-6.46,32.56.35,278.65,161.06,557.46,321.85,836.58,482.1,14.19,8.15,17.8,17.37,17.75,32.65-.51,160.56-.31,321.13-.31,481.69ZM151.41,1136.97c0,139.58-.1,279.15.08,418.73.04,30.75,12.21,37.68,39.11,22.86,12.71-7,25.14-14.52,37.65-21.89,9.71-5.72,19.97-9.87,27.51,2.03,8.7,13.74-1.86,20.37-11.99,26.38-10.41,6.17-20.89,12.22-31.35,18.3-34.88,20.27-34.74,32.2.68,52.63,251.54,145.05,503.17,289.94,754.41,435.5,16.83,9.75,28.93,9.11,45.58-.59,138.66-80.84,277.95-160.6,417-240.76,113.9-65.66,227.78-131.36,341.58-197.18,28.24-16.34,28.4-30.52.91-46.82-13.87-8.23-28.05-15.94-41.84-24.31-8.65-5.25-12.53-13.07-7.04-22.51,5.41-9.3,13.79-10.31,22.9-5.21,11.96,6.7,23.82,13.58,35.72,20.4,35.97,20.6,47.06,14.15,47.06-27.59.03-273.5.03-547.01.03-820.52,0-5.65.41-11.35-.2-16.93-2.28-21.16-14.57-28.47-33.46-18.95-15.82,7.98-30.83,17.56-46.24,26.35-9.17,5.23-18.81,7.76-25.36-3.03-7.17-11.8-.5-19.55,9.86-25.4,11.94-6.74,23.78-13.65,35.61-20.59,31.81-18.67,31.6-31.6-1.06-50.42-252.96-145.82-506.04-291.44-758.68-437.79-15.68-9.08-26.51-7.82-41.41.85-142.21,82.75-284.89,164.7-427.42,246.92-111.09,64.08-222.19,128.13-333.18,192.38-28.48,16.49-28.46,29.66-.49,46.29,13.17,7.83,26.6,15.25,39.64,23.28,8.77,5.4,16.07,12.34,9.26,23.64-6.35,10.53-15.49,9.96-25.1,4.4-12.57-7.27-25.07-14.65-37.71-21.79-31.27-17.67-42.01-11.36-42.04,25.05-.09,138.77-.04,277.54-.04,416.31Z"/>
  <path class="cls-2" d="M1860.52,1137.23c0,159.76-.25,319.51.38,479.27.07,16.66-5.12,25.55-19.74,33.95-277.69,159.5-555.07,319.53-832.25,479.91-13.48,7.8-23.43,8.52-37.31.49-278.57-161.2-557.39-321.95-836.39-482.41-11.92-6.86-16.79-14.1-16.77-28.28.44-322.74.45-645.48-.02-968.22-.02-14.31,5.37-21.19,17.02-27.89,279.69-160.87,559.24-322,838.51-483.6,12.33-7.13,20.77-6.46,32.56.35,278.65,161.06,557.46,321.85,836.58,482.1,14.19,8.15,17.8,17.37,17.75,32.65-.51,160.56-.31,321.13-.31,481.69ZM151.41,1136.97c0,139.58-.1,279.15.08,418.73.04,30.75,12.21,37.68,39.11,22.86,12.71-7,25.14-14.52,37.65-21.89,9.71-5.72,19.97-9.87,27.51,2.03,8.7,13.74-1.86,20.37-11.99,26.38-10.41,6.17-20.89,12.22-31.35,18.3-34.88,20.27-34.74,32.2.68,52.63,251.54,145.05,503.17,289.94,754.41,435.5,16.83,9.75,28.93,9.11,45.58-.59,138.66-80.84,277.95-160.6,417-240.76,113.9-65.66,227.78-131.36,341.58-197.18,28.24-16.34,28.4-30.52.91-46.82-13.87-8.23-28.05-15.94-41.84-24.31-8.65-5.25-12.53-13.07-7.04-22.51,5.41-9.3,13.79-10.31,22.9-5.21,11.96,6.7,23.82,13.58,35.72,20.4,35.97,20.6,47.06,14.15,47.06-27.59.03-273.5.03-547.01.03-820.52,0-5.65.41-11.35-.2-16.93-2.28-21.16-14.57-28.47-33.46-18.95-15.82,7.98-30.83,17.56-46.24,26.35-9.17,5.23-18.81,7.76-25.36-3.03-7.17-11.8-.5-19.55,9.86-25.4,11.94-6.74,23.78-13.65,35.61-20.59,31.81-18.67,31.6-31.6-1.06-50.42-252.96-145.82-506.04-291.44-758.68-437.79-15.68-9.08-26.51-7.82-41.41.85-142.21,82.75-284.89,164.7-427.42,246.92-111.09,64.08-222.19,128.13-333.18,192.38-28.48,16.49-28.46,29.66-.49,46.29,13.17,7.83,26.6,15.25,39.64,23.28,8.77,5.4,16.07,12.34,9.26,23.64-6.35,10.53-15.49,9.96-25.1,4.4-12.57-7.27-25.07-14.65-37.71-21.79-31.27-17.67-42.01-11.36-42.04,25.05-.09,138.77-.04,277.54-.04,416.31Z"/>
  <path class="cls-1" d="M887.52,1136.61c-226.71,113.69-449.8,225.56-675.95,338.97,0-39.45.6-74.74-.28-109.99-.37-14.78,10.9-16.48,19.56-20.84,126.73-63.81,253.59-127.36,380.42-190.97,4.32-2.17,8.64-4.36,13-6.44,15.13-7.22,16.26-14.34.27-22.17-26.78-13.13-53.42-26.54-80.09-39.9-45.41-22.75-90.77-45.59-136.19-68.31-29.7-14.86-31.04-13.97-31.06,20.19-.03,54.86-.55,109.74.34,164.58.25,15.6-3.36,24.82-18.74,31.55-29.29,12.8-57.45,28.19-86.33,42.63-5.52-9.28-3.22-17.39-3.23-25.02-.2-92.78-.65-185.57.31-278.34.19-18.49-3.28-31.14-22.29-36.51-28.97-8.19-40.5-26.3-36.27-57.06,2.94-21.38.98-43.5.42-65.27-.34-13.21,3.73-15.62,15.34-9.4,17.76,9.51,36.05,18.03,54.06,27.07,193.82,97.3,387.62,194.62,581.42,291.95,7.11,3.57,14.09,7.4,25.29,13.29Z"/>
  <path class="cls-1" d="M887.52,1136.61c-226.71,113.69-449.8,225.56-675.95,338.97,0-39.45.6-74.74-.28-109.99-.37-14.78,10.9-16.48,19.56-20.84,126.73-63.81,253.59-127.36,380.42-190.97,4.32-2.17,8.64-4.36,13-6.44,15.13-7.22,16.26-14.34.27-22.17-26.78-13.13-53.42-26.54-80.09-39.9-45.41-22.75-90.77-45.59-136.19-68.31-29.7-14.86-31.04-13.97-31.06,20.19-.03,54.86-.55,109.74.34,164.58.25,15.6-3.36,24.82-18.74,31.55-29.29,12.8-57.45,28.19-86.33,42.63-5.52-9.28-3.22-17.39-3.23-25.02-.2-92.78-.65-185.57.31-278.34.19-18.49-3.28-31.14-22.29-36.51-28.97-8.19-40.5-26.3-36.27-57.06,2.94-21.38.98-43.5.42-65.27-.34-13.21,3.73-15.62,15.34-9.4,17.76,9.51,36.05,18.03,54.06,27.07,193.82,97.3,387.62,194.62,581.42,291.95,7.11,3.57,14.09,7.4,25.29,13.29Z"/>
  <path class="cls-1" d="M965.42,1255.52c202.39.17,343.62,137.26,353.6,318.49,9.14,165.98-121.67,317.98-291.02,336.14-124.02,13.31-224.03-31.87-301.86-128.48-11.38-14.12-13.93-22.8,6.09-30.77,19.41-7.73,38.28-17.32,56.22-28.05,15.15-9.06,23.66-7.18,36,6.61,106.85,119.43,298.87,91.4,365.56-52.56,45.58-98.39,12.71-215.53-77.44-275.92-90.53-60.65-210.62-47.35-284.07,34.12-15.98,17.73-27.07,19.02-45.49,7.58-16.37-10.17-33.94-18.74-51.76-26.17-15.87-6.62-18.59-12.48-7.19-27.24,67.63-87.54,156.61-131.54,241.35-133.77Z"/>
  <path class="cls-1" d="M965.42,1255.52c202.39.17,343.62,137.26,353.6,318.49,9.14,165.98-121.67,317.98-291.02,336.14-124.02,13.31-224.03-31.87-301.86-128.48-11.38-14.12-13.93-22.8,6.09-30.77,19.41-7.73,38.28-17.32,56.22-28.05,15.15-9.06,23.66-7.18,36,6.61,106.85,119.43,298.87,91.4,365.56-52.56,45.58-98.39,12.71-215.53-77.44-275.92-90.53-60.65-210.62-47.35-284.07,34.12-15.98,17.73-27.07,19.02-45.49,7.58-16.37-10.17-33.94-18.74-51.76-26.17-15.87-6.62-18.59-12.48-7.19-27.24,67.63-87.54,156.61-131.54,241.35-133.77Z"/>
  <path class="cls-1" d="M661.68,724.98c-3.65-172.68,84.17-299.96,217.78-347.37,132.28-46.93,281.34-3.83,368.64,105.68,12.09,15.16,15.8,25.21-6.11,32.33-1.51.49-2.81,1.57-4.24,2.32-21.38,11.28-41.85,28.79-64.41,32.14-24.18,3.58-33.74-27.04-52.06-40.19-77.39-55.53-182.62-57.05-260.54-1.14-77.71,55.75-110.51,155.78-80.99,247.05,29.49,91.21,114.88,152.62,210.87,151.86,67.85-.54,124.06-26.73,167.38-78.37,11.78-14.03,20.65-15.98,35.98-7.3,18.89,10.7,38.79,19.81,58.88,28.12,14.71,6.09,17.15,11.65,7.39,25.72-104.99,151.38-319.78,186.81-466.9,75.59-85.05-64.29-128.65-150.71-131.67-226.45Z"/>
  <path class="cls-1" d="M661.68,724.98c-3.65-172.68,84.17-299.96,217.78-347.37,132.28-46.93,281.34-3.83,368.64,105.68,12.09,15.16,15.8,25.21-6.11,32.33-1.51.49-2.81,1.57-4.24,2.32-21.38,11.28-41.85,28.79-64.41,32.14-24.18,3.58-33.74-27.04-52.06-40.19-77.39-55.53-182.62-57.05-260.54-1.14-77.71,55.75-110.51,155.78-80.99,247.05,29.49,91.21,114.88,152.62,210.87,151.86,67.85-.54,124.06-26.73,167.38-78.37,11.78-14.03,20.65-15.98,35.98-7.3,18.89,10.7,38.79,19.81,58.88,28.12,14.71,6.09,17.15,11.65,7.39,25.72-104.99,151.38-319.78,186.81-466.9,75.59-85.05-64.29-128.65-150.71-131.67-226.45Z"/>
  <path class="cls-1" d="M1767.35,1475.42c-226.65-113.71-449.2-225.37-676-339.16,225.76-113.3,448.49-225.07,675.76-339.12,0,40.92.4,78.17-.24,115.4-.19,11.21-12.03,11.8-19.42,15.53-127.45,64.21-255.06,128.1-382.52,192.29-7.57,3.81-19.57,4.99-20.14,15.12-.7,12.33,12.88,12.84,20.77,16.82,126.69,63.9,253.46,127.64,380.65,190.54,15.79,7.81,22.68,16.22,21.64,34.5-1.78,31.3-.49,62.78-.49,98.08Z"/>
  <path class="cls-1" d="M1767.35,1475.42c-226.65-113.71-449.2-225.37-676-339.16,225.76-113.3,448.49-225.07,675.76-339.12,0,40.92.4,78.17-.24,115.4-.19,11.21-12.03,11.8-19.42,15.53-127.45,64.21-255.06,128.1-382.52,192.29-7.57,3.81-19.57,4.99-20.14,15.12-.7,12.33,12.88,12.84,20.77,16.82,126.69,63.9,253.46,127.64,380.65,190.54,15.79,7.81,22.68,16.22,21.64,34.5-1.78,31.3-.49,62.78-.49,98.08Z"/>
</svg>