<?xml version="1.0" encoding="UTF-8"?>
<svg id="Calque_1" data-name="Calque 1" xmlns="http://www.w3.org/2000/svg" viewBox="0 0 2520.16 1131.9">
  <defs>
    <style>
      .cls-1 {
        fill: #625e5e;
      }

      .cls-1, .cls-2 {
        stroke-width: 0px;
      }

      .cls-2 {
        fill: #fe5042;
      }
    </style>
  </defs>
  <path class="cls-1" d="M2175.87,0c65.61,130.36,129.73,257.69,193.79,385.05,46.34,92.13,92.07,184.57,139.33,276.22,10.5,20.36,5.9,23.87-14.61,22.78-24.16-1.29-48.54-1.58-72.65.11-18.64,1.31-28.26-4.75-36.77-21.97-63.88-129.27-128.94-257.96-193.97-386.66-4.07-8.06-5.06-21.86-16.54-21.3-10.7.52-12.05,13.93-16.23,22.16-36.11,71.12-71.88,142.41-107.49,213.79-11.13,22.32-9.59,24.78,14.69,24.86,58.96.18,117.94.79,176.89-.41,16.44-.33,24.49,5.14,31.05,19.5,13.63,29.86,29.03,58.91,45.33,91.54h-111.13c-67.04,0-134.09.64-201.12-.43-17.86-.29-29.8,3.99-34.46,21.7-8.46,32.18-29.47,40.94-61.1,37.37-25.24-2.85-51.06-.58-77.18-.58,5.72-20.14,323.64-655.06,342.18-683.74Z"/>
  <path class="cls-1" d="M615.31,529.76c-72.89,115.64-215.08,175.55-347.41,147.53C129.55,647.99,23.98,537.36,4.34,401.1-17.98,246.12,63.63,100.7,206.38,41.12c140.87-58.8,302.73-13.66,396.76,109.5,12.37,16.2,10.53,23.79-7.78,29.58-1.53.48-2.96,1.3-4.4,2.02-22.35,11.18-43.94,29.07-67.26,31.72-24.29,2.76-34.23-28.45-52.82-42.36-96.89-72.46-235.93-56.34-310.92,37.68-75.94,95.23-62.92,233.67,29.27,311.12,93.85,78.84,234.07,68.91,313.3-23.56,12.1-14.12,20.59-14.91,35.4-6.63,25.23,14.1,51.45,26.42,77.38,39.56Z"/>
  <path class="cls-1" d="M1851.11,169.93c-30.91,15.58-59.94,29.51-88.24,44.79-13.77,7.43-16.85-4.04-22.49-10.49-72.28-82.63-190.07-103.56-283.43-47.13-83.49,50.46-120.76,127.28-108.04,223.31,12.05,91.03,65.26,154.07,153.12,181.76,90.68,28.59,170.84,5.62,235.28-64.54,12.98-14.13,21.46-16.78,37.44-7.06,18.53,11.27,38.34,20.66,58.24,29.38,15.07,6.61,18.86,12.4,7.27,27.06-85.78,108.47-197.55,155.76-333.08,129.93-133.51-25.44-221.59-108.81-259.29-239.39-44.91-155.52,33.31-321.13,179.91-389.95,147.91-69.44,323.58-22.26,416.95,111.99,1.83,2.63,3.38,5.47,6.36,10.33Z"/>
  <path class="cls-1" d="M950.7,701.46c-115.98-230.67-229.44-456.33-344.78-685.73,40.88,0,78.32-.05,115.77.03,11.99.02,12.73,10.91,16.44,18.24,65.73,130.14,131.2,260.42,196.9,390.58,3.85,7.62,5.1,19.79,14.7,20.47,12.12.86,12.73-12.81,16.76-20.78,65.45-129.36,130.84-258.75,195.34-388.59,7.53-15.16,15.76-21.19,32.84-20.42,32.21,1.45,64.54.42,100.93.42-114.94,228.55-228.7,454.72-344.9,685.78Z"/>
  <path class="cls-1" d="M1260.42,829.48c-410.41,0-820.83,0-1231.24,0-6.46,0-12.94-.29-19.39,0-9.58.43-10.03-5.69-9.73-12.67.3-7.09-1.48-15.4,9.94-15.29,5.65.05,11.31-.06,16.97-.06,821.63,0,1643.27,0,2464.9,0,6.46,0,12.94-.15,19.38.22,9.27.53,8.9,7.51,8.91,14.09,0,6.58.54,13.5-9.1,13.59-7.27.07-14.54.11-21.81.11-409.61,0-819.21,0-1228.82,0Z"/>
  <path class="cls-2" d="M1488.38,1060.65c-49.78,25.28-81.41,6.06-81.87-48.54-.38-44.99,9.82-61.27,40.79-65.08,1.6-.2,3.34-.74,4.81-.35,20.74,5.48,41.35,6.44,62.49,1.21,11.07-2.74,15.62,3.72,15.48,15.17-.5,41.15.49,82.34-.72,123.46-.86,29.24-12.18,39.63-41.3,43.66-15.35,2.13-30.62,2.59-45.81-.48-5.44-1.1-11.22-2.58-15.8-5.51-12.35-7.91-18.35-22.47-11.95-33.23,6.2-10.43,27-8.5,32.66-2.32,11.51,12.56,23.7,16.24,35.48,8.55,12.34-8.06,4.37-23.63,5.74-36.54ZM1487.49,1008.33c-1.98-9.66,5.59-29.04-19.36-29.15-21.17-.09-18.92,15.25-18.61,28.66.32,13.64-4.19,31.19,18.03,32.03,19.25.73,21.27-12.78,19.93-31.54Z"/>
  <path class="cls-2" d="M.02,1013.7c0-58.75,49.61-86.89,98.49-59.94,14.8,8.16,27.14,42.38,21.6,57.78-2.76,7.66-8.52,6.19-13.78,6.29-13.72.26-27.53-.74-41.16.43-7.73.66-18.84-6.11-22.69,6.46-1.61,5.27-.06,12.44,5.6,14.83,9.66,4.09,21.65,7.62,28.34-3.13,7.15-11.48,16.87-6.64,25.71-7.71,22.23-2.68,19.61,9.84,13.75,23.49-4.11,9.55-12.38,15.26-22,17.52-22.34,5.25-45.24,5.51-66.99-1.5C-2.18,1058.85,1.4,1032.69.02,1013.7ZM60.99,994.13c5.83-2.01,16.34,3.97,16.4-7.02.05-9.13-9.36-9.3-16.42-9.26-7.71.05-18.33-.57-17.33,10.44.92,10.02,11.43,3.69,17.34,5.84Z"/>
  <path class="cls-2" d="M2105.49,1073.05c-21.88-2.29-46.33,1.71-55.93-22.57-10.94-27.69-11.88-57.32,1.75-84.46,9.7-19.32,56.89-26.07,85.27-14.84,18.86,7.47,30.1,33.35,26.35,57.2-1.45,9.26-6.49,9.56-13.26,9.55-16.95-.04-33.91-.2-50.86.13-5.75.11-13.83-2.62-13.99,7.96-.12,8.22,2.83,14.7,11.56,15.68,8.42.94,17.62,3.87,24.06-5.72,9.37-13.94,23.93-7.65,35.5-6.26,11.93,1.44,6.9,12.92,4.08,19.52-10.86,25.39-34.36,22.6-54.54,23.82ZM2104.36,994.8c3.23-6.89,16.79,7.13,16.55-7.83-.14-8.74-9.59-9.76-16.76-9.62-7.74.15-18.5-.11-18.25,10.42.26,10.85,11.12,4.03,18.46,7.03Z"/>
  <path class="cls-2" d="M771.57,1072.76c-21.83-1.82-45.2,1.19-54.23-21.9-10.8-27.61-11.74-57.29,1.23-84.49,9.3-19.52,56.16-26.42,85.01-15.35,19.54,7.5,30.17,31.5,26.65,56.81-1.25,9.01-5.68,10.15-12.82,10.1-16.93-.11-33.88-.32-50.8.18-5.47.16-14.13-3.64-14.54,7.08-.36,9.24,3.87,15.87,13.51,16.82,8.57.84,16.82,1.99,23.72-7.12,9.35-12.35,23.58-5.33,35.72-5.12,4.56.08,4.69,5.66,4.5,9.77-.61,13.46-7.58,22.55-19.56,28.05-12.91,5.94-26.7,5.07-38.4,5.16ZM770.44,994.28c5.77-3.36,17.98,6.3,18.04-7.23.04-8.39-9.57-9.28-16.92-9.28-8.07,0-18.54.28-18.33,10.31.22,10.62,11.2,3.63,17.2,6.2Z"/>
  <path class="cls-2" d="M355.37,1009.86c0-12.1-.03-24.19,0-36.29.05-25.24,11.56-36.29,32.82-24.34,13.93,7.83,20.8,2.11,31.09-.64,33.9-9.06,55.35,7.27,55.65,42.26.17,19.35-.64,38.74.25,58.05.68,14.74-.45,23.4-19.78,23.32-18.7-.08-23.98-5.75-22.46-23.46,1.43-16.81.28-33.84.27-50.78,0-10.78-2.45-19.31-15.96-18.97-12.7.32-19.7,6.43-19.91,19.16-.33,19.35-1.16,38.76,0,58.04,1,16.75-9.17,15.56-20.04,15.28-10.95-.28-23.57,3.17-22.15-15.69,1.15-15.24.23-30.63.23-45.95Z"/>
  <path class="cls-2" d="M2458.08,1071.62c-12.82-.18-25.72.57-38.17-4.21-15.02-5.77-25.29-18.61-18.65-31.33,6.72-12.88,24.15-6.08,37-3.24,2.37.52,3.44,5.47,5.92,7.25,9.42,6.76,19.85,5.29,29.92,1.96,4.45-1.47,5.24-6.58,3.56-10.23-4.73-10.29-14.83-7.85-23.29-8.35-44.29-2.58-58.69-14.94-53.28-46.3.54-3.15,1.43-6.32,2.67-9.26,10.76-25.39,34.23-20.54,54.22-21.19,20.52-.66,43.23-2.73,55.1,20.52,5.65,11.07,3.57,18.89-11.34,17.56-10.72-.96-22.1,3.12-31.25-7.8-2.96-3.53-12.06-2.29-18.38-2.53-5.23-.2-9.79,2.16-10.08,7.99-.29,5.8,4.16,8.7,9.19,9.29,9.59,1.13,19.27,1.38,28.9,2.2,28.4,2.4,40.45,13.92,40,38.06-.42,22.91-14.73,37.15-40.27,39.5-7.19.66-14.5.1-21.75.1Z"/>
  <path class="cls-2" d="M1066.59,1008.03c0-11.28-.02-22.56,0-33.85.03-26.1,13.65-36.61,36.64-24.01,9.59,5.26,13.84,2.31,20.79,0,13.88-4.62,27.56-4.48,38.22,6.61,10.4,10.81,9.07,25.31,8.73,38.93-.24,9.67-8.39,9.05-14.34,7.95-8.72-1.62-22.42,7.51-24.59-10.29-.79-6.46-2.1-13.75-10.94-12.92-9.11.86-11.24,8.24-11.41,15.87-.45,20.13-1.34,40.31-.5,60.41.82,19.64-12.9,13.95-23.05,14.66-10.74.75-21.15,1.83-19.8-15.04,1.28-16.02.27-32.21.27-48.33Z"/>
  <path class="cls-2" d="M1765.14,1008.44c0-12.05-.03-24.09,0-36.14.06-23.39,11.76-31.31,34.53-24.57,8.9,2.64,7.92,8.75,7.93,15.01.07,31.32-.7,62.66.29,93.95.62,19.57-12.69,14.13-22.85,14.68-10.45.56-21.39,2.29-20.15-14.77,1.17-15.98.25-32.1.24-48.17Z"/>
  <path class="cls-2" d="M1788.53,897.25c11.1-1.46,19.95-.47,19.61,16.81-.35,17.5-11.31,14.21-21.3,14.34-10.99.15-22.27,3.02-22.26-15.75.01-19.05,11.63-15.26,23.96-15.41Z"/>
  <path class="cls-2" d="M69.31,901.16c3.5,1.69,14.33-4.36,11.36,7.35-2.35,9.27-4.02,21.65-18.86,20.09-5.64-.59-15.07,2.17-12.76-8.35,2.1-9.6,4.24-21.38,20.27-19.08Z"/>
</svg>